<?xml version="1.0" encoding="UTF-8"?>
<svg id="Layer_2" data-name="Layer 2" xmlns="http://www.w3.org/2000/svg" viewBox="0 0 80.99 113.06">
  <defs>
    <style>
      .cls-1 {
        fill: #11bff1;
      }

      .cls-2 {
        fill: #1e1f1f;
      }
    </style>
  </defs>
  <g id="Layer_1-2" data-name="Layer 1">
    <g>
      <path class="cls-1" d="M21.78,57.86h14.38c-1.56-11.3,6.93-20.52,15.44-20.72,8.73-.21,17.83,9.08,16.28,20.72v35.52h13.11v-42.24c-.54-15.85-13.64-28.59-29.39-28.7-15.91-.11-29.27,12.69-29.81,28.7v6.71Z"/>
      <path class="cls-1" d="M59.21,57.96h-14.38c1.56,11.3-6.93,20.52-15.44,20.72-8.73.21-17.83-9.08-16.28-20.72V22.44H0v42.24c.54,15.85,13.64,28.59,29.39,28.7,15.91.11,29.27-12.69,29.81-28.7v-6.71Z"/>
      <path d="M51.48,0l-9.94,9.94,9.83,9.83,9.86-9.86S52.11.63,51.48,0Z"/>
      <path class="cls-2" d="M80.99,99.71v13.35S0,113.06,0,113.06v-13.35s80.99,0,80.99,0Z"/>
    </g>
  </g>
</svg>