<?xml version="1.0" encoding="UTF-8"?>
<svg id="Layer_2" data-name="Layer 2" xmlns="http://www.w3.org/2000/svg" viewBox="0 0 238.17 118.34">
  <defs>
    <style>
      .cls-1 {
        fill: #11bff1;
      }

      .cls-2 {
        fill: #1e1f1f;
      }
    </style>
  </defs>
  <g id="Layer_1-2" data-name="Layer 1">
    <path class="cls-1" d="M21.78,61.43h14.38c-1.56-11.3,6.93-20.52,15.44-20.72,8.73-.21,17.83,9.08,16.28,20.72v35.52h13.11v-42.24c-.54-15.85-13.64-28.59-29.39-28.7-15.91-.11-29.27,12.69-29.81,28.7v6.71Z"/>
    <path class="cls-1" d="M59.21,61.53h-14.38c1.56,11.3-6.93,20.52-15.44,20.72-8.73.21-17.83-9.08-16.28-20.72V26.01H0v42.24c.54,15.85,13.64,28.59,29.39,28.7,15.91.11,29.27-12.69,29.81-28.7v-6.71Z"/>
    <path d="M51.59,0l-9.94,9.94,9.83,9.83,9.86-9.86S52.23.63,51.59,0Z"/>
    <g>
      <path class="cls-2" d="M95.75,29.04h11.98v41.77h-11.98V29.04Z"/>
      <path class="cls-2" d="M113.93,29.04h20.37c3.73,0,6.59,1,8.59,2.99s2.99,4.46,2.99,7.41c0,2.47-.71,4.59-2.14,6.35-.95,1.18-2.34,2.11-4.17,2.79,2.78.72,4.82,1.96,6.13,3.72,1.31,1.76,1.96,3.97,1.96,6.62,0,2.17-.47,4.11-1.4,5.84-.93,1.73-2.21,3.1-3.83,4.1-1,.63-2.52,1.08-4.54,1.37-2.69.38-4.48.57-5.36.57h-18.63V29.04ZM125.76,45.45h5.2c1.86,0,3.16-.35,3.89-1.04.73-.69,1.09-1.7,1.09-3.01,0-1.22-.37-2.17-1.09-2.85-.73-.68-2-1.03-3.81-1.03h-5.28v7.92ZM125.76,60.86h6.09c2.06,0,3.51-.39,4.35-1.18.84-.79,1.27-1.85,1.27-3.18,0-1.23-.42-2.23-1.25-2.98-.84-.75-2.3-1.13-4.39-1.13h-6.07v8.46Z"/>
      <path class="cls-2" d="M152.75,29.04h11.16l14.56,23.11v-23.11h11.27v41.77h-11.27l-14.48-22.94v22.94h-11.24V29.04Z"/>
      <path class="cls-1" d="M93.19,103.81l11.37-.77c.25,1.99.75,3.51,1.5,4.56,1.23,1.69,2.99,2.54,5.28,2.54,1.71,0,3.02-.43,3.94-1.3.92-.86,1.39-1.87,1.39-3.01s-.44-2.05-1.32-2.91c-.88-.85-2.92-1.66-6.12-2.42-5.24-1.27-8.98-2.96-11.21-5.07-2.25-2.11-3.38-4.8-3.38-8.06,0-2.15.58-4.17,1.73-6.08,1.15-1.91,2.88-3.41,5.2-4.5,2.31-1.09,5.48-1.64,9.51-1.64,4.94,0,8.71.99,11.31,2.98,2.59,1.98,4.14,5.14,4.63,9.47l-11.27.71c-.3-1.88-.93-3.25-1.89-4.1-.96-.85-2.28-1.28-3.97-1.28-1.39,0-2.44.32-3.14.95-.7.64-1.06,1.41-1.06,2.32,0,.67.29,1.26.87,1.8.56.55,1.9,1.06,4.01,1.54,5.22,1.22,8.97,2.45,11.23,3.69s3.91,2.79,4.93,4.63c1.03,1.84,1.54,3.9,1.54,6.18,0,2.68-.69,5.15-2.06,7.41-1.37,2.26-3.29,3.97-5.75,5.14-2.46,1.17-5.57,1.75-9.31,1.75-6.58,0-11.13-1.37-13.67-4.1-2.53-2.74-3.97-6.21-4.3-10.43Z"/>
      <path class="cls-1" d="M133.62,75.86h11.98v41.77h-11.98v-41.77Z"/>
      <path class="cls-1" d="M152.75,75.86h11.16l14.56,23.11v-23.11h11.27v41.77h-11.27l-14.48-22.94v22.94h-11.24v-41.77Z"/>
      <path class="cls-1" d="M223.72,110.74h-13.57l-1.88,6.9h-12.2l14.54-41.77h13.04l14.53,41.77h-12.52l-1.93-6.9ZM221.24,101.7l-4.27-15.02-4.22,15.02h8.49Z"/>
    </g>
    <path class="cls-2" d="M80.99,104.28v13.35S0,117.63,0,117.63v-13.35s80.99,0,80.99,0Z"/>
  </g>
</svg>